<svg width="845" height="666" viewBox="0 0 845 666" fill="none" xmlns="http://www.w3.org/2000/svg">
<path d="M292.685 102.476C294.255 115.296 294.415 128.516 297.885 140.806C300.195 148.976 306.035 157.086 312.375 162.986C328.345 177.826 336.075 196.426 340.385 216.956C346.505 246.126 352.305 275.366 358.265 304.576C360.495 315.526 355.655 323.076 346.465 328.106C333.595 335.146 319.895 338.916 305.035 337.246C298.565 336.516 292.075 335.996 285.605 335.256C267.765 333.206 256.235 323.396 253.765 305.786C250.115 279.816 243.675 254.116 245.945 227.486C247.735 206.466 254.785 187.096 264.865 169.086C273.465 153.746 273.425 138.326 271.315 121.846C268.985 103.586 267.855 85.1664 266.045 66.8364C265.675 63.1264 264.445 59.5064 263.915 55.8064C263.355 51.8464 261.365 45.9464 263.165 44.2464C266.915 40.7064 272.735 37.5864 277.735 37.5364C285.575 37.4664 290.565 43.1264 291.265 51.1964C292.735 68.1964 293.865 85.2264 295.135 102.246C294.315 102.326 293.495 102.406 292.675 102.496L292.685 102.476ZM272.735 326.796C272.175 326.216 271.625 325.636 271.065 325.056C268.905 321.776 266.745 318.506 264.585 315.226L264.655 315.306C263.325 312.566 261.985 309.826 260.655 307.086C259.865 315.786 263.615 321.626 271.145 324.966C271.705 325.546 272.265 326.126 272.815 326.696C273.145 326.886 273.485 327.076 273.505 327.096C273.465 327.086 273.095 326.936 272.725 326.796H272.735ZM275.945 54.4664C271.695 54.7564 269.975 56.4064 270.445 61.2164C271.755 74.9364 272.365 88.7264 273.385 102.476C273.715 106.926 274.455 111.346 275.005 115.776C274.915 99.4464 273.575 83.2864 272.935 67.0864C272.775 62.8964 274.825 58.6164 275.865 54.3764L279.315 52.8364C284.285 52.7364 285.875 55.8264 286.015 60.1064C286.225 66.5764 286.205 73.0664 286.505 79.5364C287.285 96.1964 288.195 112.846 289.055 129.506C290.115 135.016 289.795 141.316 292.455 145.896C306.135 169.456 320.575 192.576 334.745 215.846C337.025 224.796 332.335 228.806 324.715 232.436C306.555 241.076 287.525 241.576 268.165 240.296C259.825 239.746 253.015 236.476 249.925 227.426C250.675 244.166 251.955 260.626 254.265 276.956C254.765 280.476 258.315 284.896 261.625 286.466C286.175 298.146 311.885 301.326 338.475 294.886C351.535 291.726 351.485 291.536 348.885 278.526C348.295 275.596 347.795 272.656 347.165 269.736C344.905 259.326 342.615 248.916 340.305 238.346C302.855 252.886 264.905 254.046 256.705 240.136C260.365 240.886 263.175 241.316 265.905 242.056C285.855 247.456 305.565 247.416 324.975 239.686C340.595 233.466 341.165 232.026 334.625 215.936C332.325 200.426 327.715 185.656 316.415 174.386C303.555 161.556 292.935 147.686 288.955 129.576C288.695 102.496 290.995 75.2864 285.685 46.9864C282.835 49.6764 281.125 51.2964 279.405 52.9164C278.255 53.4264 277.105 53.9464 275.955 54.4564L275.945 54.4664ZM257.075 298.486C261.285 298.486 264.975 297.806 268.325 298.596C292.935 304.436 317.465 309.756 342.695 301.526C345.835 300.506 349.765 301.886 353.355 302.156C352.955 297.896 351.695 295.626 346.155 297.396C317.765 306.506 289.955 303.886 262.705 292.476C261.075 291.796 259.285 291.506 257.075 290.896V298.486ZM253.035 219.496C253.585 218.336 254.135 217.186 254.665 216.026C261.255 201.536 268.205 187.196 274.255 172.496C276.885 166.096 277.675 158.946 279.295 152.136C267.885 173.786 255.355 194.736 253.025 219.506L253.035 219.496ZM287.815 330.626C323.045 335.176 348.295 328.466 352.395 313.276C335.885 336.026 310.885 325.966 287.815 330.626ZM266.155 48.8864C273.405 51.6064 278.275 49.3764 279.765 42.6764C270.965 41.2264 269.285 41.9864 266.155 48.8864ZM281.305 329.026C280.865 329.116 280.425 329.206 281.305 329.026C280.855 329.056 280.405 329.086 281.305 329.026ZM276.905 125.846L276.725 126.366L276.885 126.466L276.905 125.846Z" fill="#325742" fill-opacity="0.05"/>
<path d="M306.955 419.666C308.045 419.106 309.135 418.556 310.215 417.996L310.255 417.956C318.065 413.096 325.865 408.236 333.905 403.226C325.785 403.226 317.885 403.696 310.075 403.036C305.885 402.676 301.875 400.366 297.775 398.936C300.675 395.646 303.185 391.876 306.585 389.216C309.485 386.956 313.305 385.726 316.875 384.486C325.875 381.356 332.595 374.986 339.965 368.386C353.435 356.316 367.245 344.226 382.465 334.606C435.285 301.236 492.725 282.706 555.865 285.686C578.885 286.776 599.445 294.896 614.765 312.876C627.445 327.766 626.585 345.356 622.845 363.156C617.885 386.796 605.095 405.336 586.145 420.006C544.725 452.066 498.075 469.046 445.555 466.736C425.095 465.836 404.635 462.036 384.465 458.076C367.515 454.756 353.695 444.766 342.005 432.216C338.745 428.716 335.945 428.206 331.345 429.336C321.645 431.726 311.725 433.276 301.835 434.726C299.815 435.026 297.515 433.376 295.335 432.626C296.415 430.376 297.035 427.696 298.675 425.986C301.075 423.486 304.215 421.676 307.035 419.576L306.945 419.656L306.955 419.666ZM341.205 403.386L341.115 403.296C341.685 402.726 342.255 402.166 342.815 401.596C343.215 401.366 343.615 401.146 344.025 400.916C343.635 400.636 343.245 400.356 342.855 400.076L342.935 399.986C342.935 400.556 342.925 401.126 342.915 401.696C342.345 402.256 341.775 402.826 341.205 403.386ZM567.785 383.796C576.845 373.526 586.915 363.956 594.685 352.786C601.595 342.836 598.365 335.266 586.585 331.646C573.175 327.526 559.365 324.666 545.595 321.896C543.285 321.436 539.395 323.516 537.795 325.606C522.265 345.946 531.395 377.356 555.175 386.816C560.405 388.896 564.615 388.786 567.865 383.716L567.795 383.786L567.785 383.796ZM474.885 325.126C471.035 326.426 466.805 327.096 463.455 329.186C459.805 331.456 456.965 335.036 453.775 338.036C456.135 340.316 458.505 342.606 460.885 344.916C457.535 348.096 453.935 351.526 449.255 355.966C454.355 356.956 456.775 357.426 460.795 358.196C452.605 363.716 454.475 368.696 459.455 374.156C456.135 373.196 452.915 372.236 451.705 370.116C450.265 367.596 451.665 363.016 449.905 361.206C443.005 354.106 447.455 349.796 453.055 345.486C452.095 344.436 451.065 343.746 450.705 342.806C449.865 340.606 449.355 338.286 448.525 335.386C444.055 337.206 439.795 338.806 435.645 340.656C423.945 345.876 422.985 350.956 432.385 358.306C428.545 361.406 424.745 364.476 419.265 368.906C424.875 370.016 427.555 370.546 430.915 371.216C428.535 374.516 426.705 377.056 424.695 379.846C427.205 382.226 429.435 384.326 431.665 386.436L430.115 388.476C427.265 386.236 423.835 384.416 421.795 381.596C420.545 379.876 422.505 375.476 421.185 374.236C414.765 368.206 417.865 363.786 422.805 359.486C421.845 356.056 420.935 352.826 419.545 347.876C413.475 354.856 407.475 360.726 402.725 367.476C395.935 377.126 386.955 383.086 375.785 385.816C369.315 387.396 362.635 388.126 357.515 388.996C361.165 391.996 367.865 394.916 368.335 398.636C368.785 402.116 363.375 407.636 359.255 410.156C350.125 415.746 340.175 420.016 330.565 424.826C337.945 423.166 344.965 420.576 351.795 417.546C361.785 413.126 371.485 413.166 381.765 417.066C394.425 421.876 407.355 426.056 420.385 429.776C428.235 432.016 436.485 432.846 444.575 434.316C444.145 429.436 445.115 424.946 443.305 422.816C437.475 415.956 440.675 411.616 446.255 407.596C441.395 398.906 444.025 392.106 453.545 389.626C450.725 395.726 439.995 402.666 456.905 406.206C452.025 409.416 447.335 410.836 445.755 413.886C441.475 422.116 451.835 416.246 452.495 419.286C451.015 423.296 449.795 426.556 448.585 429.826C452.265 431.186 455.865 433.286 459.645 433.696C463.675 434.126 467.875 432.946 470.395 432.656C469.355 427.366 469.975 421.556 467.375 418.966C460.385 411.986 465.285 408.126 469.795 403.836C465.205 395.396 467.745 388.866 477.275 385.716C474.925 389.926 472.835 393.666 470.505 397.826C474.065 399.396 476.625 400.536 480.555 402.276C477.675 404.326 475.715 405.526 473.995 406.996C471.885 408.786 469.965 410.806 467.965 412.726C470.505 413.536 473.065 414.306 475.585 415.176C476.025 415.326 476.345 415.856 476.305 415.826C475.015 419.506 472.325 423.336 473.095 426.256C473.635 428.296 479.115 430.586 481.995 430.156C489.005 429.096 495.785 426.506 500.685 425.106C499.225 419.106 499.475 413.406 496.755 410.356C490.515 403.366 493.335 398.846 499.115 394.576C494.395 385.806 497.095 379.176 507.615 376.096C503.875 382.486 492.505 389.536 509.465 392.846C504.395 396.766 500.425 399.836 494.755 404.216C500.095 405.376 502.965 405.996 504.985 406.436C503.905 410.506 501.095 415.326 502.425 417.186C505.965 422.146 511.465 421.716 516.815 418.616C523.145 414.946 529.925 412.036 536.145 408.196C543.545 403.636 550.565 398.436 556.875 394.116C549.075 387.736 540.955 383.176 535.715 376.386C522.125 358.786 523.725 340.126 535.115 321.786L535.355 321.536L535.225 321.886C518.145 316.426 500.935 314.886 484.115 322.206C480.835 323.636 478.985 328.356 475.965 332.216C480.165 333.916 482.735 334.946 486.455 336.446C481.585 340.246 477.585 343.366 472.005 347.716C477.295 348.896 479.965 349.496 483.355 350.246C481.165 353.586 479.465 356.186 476.465 360.766C479.085 362.216 481.735 363.676 484.385 365.146C475.585 364.886 474.095 363.306 474.025 356.346C474.015 355.116 474.105 353.406 473.385 352.746C468.775 348.486 469.075 344.516 473.295 340.186C474.185 339.276 474.295 337.406 474.385 335.956C474.625 332.326 474.665 328.676 474.775 325.036L474.855 325.126H474.885ZM365.685 445.756L365.625 445.686C371.455 448.416 377.035 452.556 383.145 453.636C404.465 457.376 425.895 461.876 447.425 462.766C499.465 464.926 545.485 447.526 586.095 415.306C609.595 396.666 620.615 371.916 621.155 342.326C621.355 331.426 618.025 321.576 610.195 313.426C595.495 298.116 577.225 290.496 556.465 289.776C540.785 289.226 524.855 289.296 509.365 291.466C478.095 295.836 447.795 304.256 419.395 318.566L419.475 318.486C395.155 329.456 372.775 343.486 352.565 360.946L352.645 360.876C345.695 366.826 338.915 372.896 336.305 382.296C364.095 389.756 386.025 381.806 403.465 360.116C409.405 352.726 417.445 346.486 425.645 341.596C435.335 335.816 446.115 331.736 456.645 327.486C478.005 318.866 499.285 309.556 523.365 314.696C525.525 315.156 528.015 314.036 530.355 313.656L530.305 313.706C533.655 314.666 536.965 315.756 540.345 316.566C556.365 320.416 572.645 323.406 588.365 328.226C602.105 332.436 604.955 341.306 598.535 354.236C596.975 357.366 595.365 360.706 592.965 363.146C581.235 375.076 570.255 388.096 557.025 398.126C542.725 408.966 526.225 416.926 510.695 426.146L510.765 426.076C507.405 427.086 504.015 427.986 500.705 429.136C482.915 435.296 464.775 439.056 445.805 437.926C423.625 436.606 402.725 430.136 382.515 421.566C367.905 415.376 355.305 418.836 340.765 427.766C349.765 434.266 357.735 440.016 365.705 445.766L365.685 445.756ZM300.185 429.616C300.415 430.126 300.635 430.636 300.865 431.146C303.985 430.926 307.105 430.716 310.555 430.476C309.225 428.346 308.085 426.536 306.785 424.456C304.215 426.466 302.205 428.046 300.195 429.616H300.185ZM303.015 395.246C302.905 396.466 302.795 397.686 302.685 398.896C307.045 399.116 311.405 399.336 315.775 399.556C315.775 399.316 315.775 399.066 315.775 398.826C311.525 397.636 307.275 396.436 303.025 395.246H303.015ZM316.385 388.296C316.585 388.796 316.785 389.296 316.985 389.786C321.025 389.096 325.065 388.406 329.105 387.726C329.025 387.326 328.945 386.926 328.875 386.536L316.385 388.296Z" fill="#325742" fill-opacity="0.05"/>
<path d="M497.655 104.986C502.435 110.756 503.455 117.296 503.005 124.706C502.045 140.406 501.805 156.156 501.385 171.886C501.265 176.496 501.295 181.126 501.665 185.716C502.585 197.176 504.605 207.576 519.515 208.636C523.855 208.946 528.105 211.816 532.225 213.876C539.595 217.556 545.695 222.486 545.265 231.776C544.785 242.266 541.015 251.846 530.365 254.726C518.765 257.866 506.065 261.346 494.605 259.616C475.765 256.766 457.475 250.086 439.095 244.516C431.265 242.146 427.625 235.916 427.285 227.726C426.925 219.086 431.595 213.396 439.095 211.166C448.325 208.416 457.965 206.736 467.555 205.666C472.615 205.106 474.635 204.006 474.835 198.656C475.585 178.606 477.115 158.576 477.645 138.526C477.845 130.766 476.645 122.866 475.205 115.196C472.985 103.336 472.665 103.396 483.905 98.4764C475.645 88.3464 476.685 77.2564 479.705 65.5064C481.835 57.2264 482.235 48.4964 483.595 38.5964C490.755 43.5564 489.255 51.2864 491.255 57.2464C493.565 64.1264 496.245 71.4264 496.025 78.4564C495.815 85.0764 492.025 91.5864 489.585 98.8064C491.825 100.516 494.785 102.776 497.745 105.036L497.675 104.956L497.655 104.986ZM453.735 245.206C452.595 244.686 451.455 244.166 450.315 243.636C445.025 240.226 439.735 236.816 434.445 233.406C433.985 234.306 433.525 235.196 433.065 236.096C438.845 238.576 444.625 241.056 450.405 243.536C451.545 244.056 452.685 244.586 453.815 245.106C454.475 245.286 455.145 245.456 455.805 245.636C455.115 245.486 454.425 245.346 453.735 245.196V245.206ZM492.805 108.216L492.855 108.276C491.045 108.526 489.235 108.776 487.905 108.966C485.805 107.566 483.925 106.016 481.765 105.116C481.315 104.926 479.865 107.116 478.875 108.206C480.795 109.856 482.475 112.266 484.695 112.966C488.305 114.106 492.275 114.126 496.095 114.616C496.355 113.956 496.615 113.296 496.875 112.636L492.805 108.216ZM471.685 250.056C470.585 249.636 469.475 249.226 468.375 248.806C468.305 249.106 468.225 249.396 468.155 249.696C469.355 249.786 470.555 249.876 471.765 249.966C492.215 257.686 512.445 258.606 530.035 250.056C512.105 250.056 491.895 250.056 471.685 250.056ZM476.495 238.606L476.555 238.676C468.105 230.296 474.435 220.276 474.315 210.726C461.055 208.606 449.235 210.636 438.225 216.666C431.665 220.256 431.465 223.196 437.145 228.456C440.305 231.376 443.795 234.136 447.585 236.136C475.075 250.636 504.135 245.796 532.825 241.986C541.285 240.866 543.545 229.416 537.165 223.096C529.015 215.016 518.225 212.656 507.525 209.716C501.705 240.816 495.975 245.926 476.495 238.616V238.606ZM497.205 135.196C496.515 135.276 495.835 135.356 495.145 135.436C496.505 163.006 498.035 190.576 499.025 218.156C499.175 222.406 497.925 227.756 495.245 230.746C492.975 233.286 487.465 234.446 483.885 233.726C481.825 233.316 480.385 228.076 479.375 224.796C478.695 222.586 479.245 219.996 479.245 215.486C478.255 219.586 477.075 221.776 477.405 223.706C478.045 227.446 478.485 232.376 480.955 234.316C483.565 236.356 489.445 237.076 492.115 235.446C495.785 233.206 499.395 228.506 500.115 224.356C501.335 217.276 500.565 209.786 500.115 202.496C499.355 189.816 497.915 177.166 497.305 164.476C496.835 154.736 497.215 144.956 497.215 135.196H497.205ZM488.845 87.4864C493.255 77.2864 492.365 69.7664 485.075 59.6964C483.765 69.4764 482.595 78.1464 481.425 86.8264C482.035 86.8764 482.635 86.9364 483.245 86.9864C484.255 83.9964 485.275 81.0064 486.285 78.0164C487.005 78.2164 487.725 78.4264 488.445 78.6264C488.575 81.4264 488.695 84.2264 488.845 87.4864ZM480.995 162.916C480.755 162.886 480.525 162.866 480.285 162.836V203.256C480.525 203.256 480.755 203.256 480.995 203.256V162.916ZM482.615 142.736C482.385 142.736 482.145 142.736 481.915 142.726V152.046C482.145 152.046 482.385 152.046 482.615 152.056V142.736ZM482.225 118.486C481.845 118.336 481.455 118.176 481.075 118.026C481.075 118.436 481.025 118.856 481.105 119.246C481.135 119.376 481.655 119.556 481.675 119.526C481.885 119.206 482.045 118.846 482.215 118.486H482.225Z" fill="#325742" fill-opacity="0.05"/>
<path d="M730.835 184.906C732.235 183.676 733.995 182.686 734.975 181.186C752.145 155.086 776.995 141.696 807.195 136.536C818.155 134.666 827.165 138.266 833.175 146.336C838.345 153.276 841.835 161.946 844.185 170.366C846.915 180.166 841.265 187.466 833.435 193.036L833.505 192.966C812.245 198.366 791.085 204.196 769.675 208.926C762.835 210.436 754.855 210.676 748.275 208.646C734.865 204.506 722.625 205.736 710.585 212.146C703.885 215.716 697.525 219.986 690.645 223.126C685.815 225.336 680.435 226.976 675.185 227.426C669.165 227.936 665.865 223.836 665.105 217.926C664.385 212.326 667.215 209.766 672.415 208.066C688.645 202.766 704.745 197.056 720.815 191.296C723.795 190.226 726.415 188.146 729.205 186.536L729.135 186.576L730.885 184.826L730.845 184.896L730.835 184.906ZM712.785 199.516C711.705 200.076 710.615 200.626 709.535 201.186C707.905 201.716 706.265 202.246 704.635 202.786C703.005 203.326 701.385 203.876 699.755 204.416C698.205 205.006 696.655 205.596 695.105 206.186C693.485 206.736 691.865 207.286 690.245 207.836C688.615 208.376 686.975 208.906 685.335 209.446C684.175 209.956 683.025 210.476 681.865 210.986C671.705 212.236 679.495 218.306 677.695 223.136C681.035 222.006 683.015 221.336 684.995 220.666L685.665 220.406L685.075 220.736C677.065 219.766 680.645 214.926 681.785 210.896C682.935 210.386 684.095 209.876 685.245 209.356C686.885 208.826 688.515 208.286 690.155 207.756C691.775 207.206 693.405 206.656 695.025 206.106C696.575 205.516 698.115 204.916 699.675 204.326C701.305 203.786 702.925 203.246 704.565 202.706C706.195 202.176 707.825 201.636 709.465 201.106C710.555 200.566 711.635 200.016 712.725 199.476L713.375 199.266L712.795 199.516H712.785ZM729.205 193.026C730.285 192.476 731.355 191.916 732.435 191.366C750.045 188.196 767.655 185.036 787.775 181.416C782.715 173.256 778.605 166.486 774.355 159.816C771.825 155.856 769.125 156.216 764.825 158.216C749.675 165.256 741.715 178.876 732.525 191.476C731.445 192.026 730.365 192.576 729.285 193.116C728.905 193.276 728.535 193.446 728.595 193.416C728.525 193.456 728.865 193.246 729.195 193.026H729.205ZM781.385 201.186C783.615 200.056 785.835 198.936 788.065 197.806C787.965 197.406 787.875 196.996 787.775 196.596C785.675 198.156 783.565 199.706 781.465 201.266C780.775 201.436 780.085 201.596 780.955 201.386C780.135 201.766 780.765 201.476 781.395 201.176L781.385 201.186ZM768.225 204.426C761.725 204.426 755.235 204.426 748.735 204.426L748.465 204.216L748.745 204.446C755.205 204.416 761.675 204.376 768.145 204.346C769.325 204.226 770.505 204.116 771.695 203.996C771.625 203.716 771.565 203.426 771.495 203.146C770.405 203.576 769.315 204.006 768.225 204.436V204.426ZM793.255 199.226C799.785 197.686 805.965 196.676 811.775 194.636C813.915 193.886 816.465 190.836 816.685 188.616C817.955 175.776 814.935 163.806 807.155 153.376C798.155 141.316 786.095 141.156 775.735 152.676C784.575 166.296 790.415 181.813 793.255 199.226ZM805.975 141.986C810.415 149.966 815.575 157.096 818.475 165.056C821.365 172.996 821.975 181.766 823.675 190.616C830.825 189.356 836.745 186.656 838.965 179.806C843.725 165.116 828.265 134.486 805.985 141.986H805.975ZM671.205 214.626C670.475 214.816 669.735 215.016 669.005 215.206C669.745 217.116 670.485 219.016 671.225 220.926C671.785 220.706 672.345 220.496 672.915 220.276C672.345 218.396 671.785 216.506 671.215 214.626H671.205Z" fill="#325742" fill-opacity="0.05"/>
<path d="M444.115 504.046C447.525 502.906 451.715 499.886 454.625 500.836C462.575 503.416 471.595 505.276 473.545 516.186C477.065 535.806 481.295 555.296 485.025 574.876C485.885 579.366 487.625 581.886 492.455 583.056C499.065 584.656 500.045 588.706 496.185 594.706C488.535 606.606 474.975 611.106 462.015 605.136C445.655 597.596 429.625 589.366 413.465 581.386C412.515 580.916 411.315 580.256 410.975 579.396C408.095 572.216 404.165 565.166 402.905 557.676C400.995 546.356 400.875 534.726 400.235 523.206C400.125 521.186 400.525 517.996 401.805 517.236C409.075 512.906 416.355 508.196 424.275 505.526C430.165 503.536 437.035 504.446 444.105 504.026L444.115 504.046ZM460.205 538.626L460.475 538.866L460.185 538.596C459.625 538.046 459.065 537.496 458.505 536.946C449.385 524.916 443.085 524.846 432.765 536.386C430.855 538.516 428.265 540.036 425.995 541.836C425.485 545.056 424.965 548.276 424.455 551.496C424.955 553.146 425.455 554.796 425.965 556.446C426.535 557.016 427.105 557.586 427.685 558.156C428.215 559.766 428.745 561.366 429.265 562.976L429.185 563.056C428.655 561.446 428.135 559.836 427.605 558.226C427.025 557.656 426.455 557.086 425.875 556.516C425.375 554.866 424.875 553.206 424.375 551.556C425.455 548.856 426.535 546.156 427.615 543.446C436.725 535.536 446.935 532.816 458.585 536.846C459.125 537.436 459.655 538.026 460.195 538.606L460.205 538.626ZM471.745 554.736C471.875 555.116 472.005 555.496 472.025 555.546C472.005 555.516 471.835 555.166 471.655 554.826C471.095 553.756 470.535 552.686 469.975 551.616C468.905 548.916 467.835 546.226 466.765 543.526L466.845 543.436C467.915 546.136 468.995 548.836 470.065 551.536C470.625 552.606 471.195 553.666 471.755 554.736H471.745ZM474.915 595.636C475.115 595.316 475.325 594.996 475.265 595.076C475.305 594.986 475.145 595.346 474.985 595.696L474.915 595.636ZM455.345 589.156C455.035 588.926 454.725 588.696 454.755 588.716C454.725 588.706 455.075 588.876 455.425 589.056C457.085 590.026 458.735 590.996 460.395 591.976C460.585 591.506 460.785 591.046 460.975 590.576C459.095 590.106 457.225 589.626 455.345 589.156ZM466.775 589.206L466.665 589.096C473.655 594.996 474.345 585.246 479.835 584.786C473.825 571.656 468.585 559.196 462.445 547.186C459.015 540.466 446.305 537.936 438.935 541.466C431.055 545.236 429.835 549.286 433.345 559.636C433.865 561.156 434.455 562.826 434.335 564.366C433.925 569.656 437.085 571.896 441.215 574.156C449.895 578.896 458.275 584.156 466.785 589.206H466.775ZM466.715 512.456L466.775 512.526C459.545 505.406 455.945 504.986 447.275 509.996C446.175 510.636 444.725 510.996 443.455 510.946C436.845 510.706 429.885 508.806 423.755 510.336C417.315 511.946 411.645 516.726 405.755 520.306C405.175 520.656 405.195 522.346 405.265 523.386C405.995 534.206 406.125 545.126 407.805 555.796C408.895 562.766 412.255 569.376 414.595 576.156L414.525 576.086C423.295 580.236 432.065 584.386 439.265 587.786C433.345 577.856 426.765 567.606 420.995 556.896C415.745 547.146 417.565 541.706 426.345 535.556C428.505 534.046 430.265 531.886 432.005 529.856C439.615 520.976 452.355 521.406 459.595 530.466C462.295 533.846 466.035 536.406 469.305 539.336L471.755 537.976C470.075 529.466 468.405 520.956 466.725 512.446L466.715 512.456ZM494.025 589.016C488.375 586.816 484.705 586.826 481.875 592.236C479.835 596.146 476.625 599.436 474.285 602.536C482.935 603.466 488.715 597.666 494.025 589.016ZM447.765 586.096C448.225 585.606 448.685 585.106 449.145 584.616C447.255 583.236 445.375 581.846 443.485 580.466L442.645 581.576C444.355 583.086 446.055 584.586 447.765 586.096Z" fill="#325742" fill-opacity="0.05"/>
<path d="M112.995 188.196C119.125 183.276 125.395 183.556 132.775 185.906C142.475 188.996 152.715 190.396 162.705 192.596C171.105 194.456 179.425 196.896 187.915 198.096C190.805 198.506 194.895 196.726 197.085 194.576C201.735 190.016 205.835 190.046 209.355 195.816C216.965 208.316 215.445 222.086 204.445 231.836C194.225 240.896 183.325 249.196 172.715 257.816C170.825 259.346 168.455 260.486 167.015 262.346C162.485 268.206 157.065 269.306 150.535 266.316L150.585 266.396C149.435 266.396 148.295 266.396 147.145 266.396L147.195 266.326C137.305 268.126 128.395 264.996 119.695 260.866C115.175 258.726 110.855 256.066 106.175 254.386C100.445 252.326 97.6546 249.066 98.7846 242.806C99.2046 240.486 99.7246 237.676 98.8246 235.726C94.4046 226.046 99.8946 218.586 103.845 210.746C104.665 209.126 107.095 206.876 106.715 206.306C100.705 197.266 108.725 193.356 113.075 188.126L113.005 188.196H112.995ZM184.735 233.866C184.195 234.416 183.645 234.956 183.105 235.506C180.415 236.576 177.725 237.646 175.035 238.716L174.755 238.886L174.915 238.596C177.615 237.536 180.325 236.476 183.025 235.416C183.575 234.876 184.125 234.336 184.665 233.786C185.225 233.206 185.785 232.626 186.345 232.036C188.485 229.876 190.635 227.726 192.775 225.576L192.845 225.636C190.705 227.796 188.565 229.956 186.425 232.126C185.865 232.706 185.295 233.286 184.735 233.866ZM181.455 241.936C180.925 242.506 180.395 243.066 179.875 243.636C167.935 246.016 156.705 251.146 143.755 249.366C132.795 247.856 129.285 246.206 126.955 235.086C126.525 233.026 125.465 231.066 124.525 229.146C118.685 217.156 123.935 205.856 136.725 202.616C139.265 201.976 141.615 200.566 144.055 199.516L143.975 199.596C145.245 198.606 146.515 197.626 148.665 195.946C141.905 193.816 136.455 192.266 131.125 190.376C118.545 185.916 110.435 192.286 112.095 205.436C112.225 206.476 112.345 208.066 111.765 208.566C106.605 213.016 105.625 219.156 103.875 225.296C101.655 233.026 106.285 240.196 104.495 247.686C104.425 247.996 105.065 248.656 105.505 248.876C112.375 252.266 118.955 256.866 126.225 258.646C136.345 261.136 146.975 261.556 157.405 262.696C158.575 262.826 160.155 262.166 161.055 261.336C167.365 255.476 173.555 249.486 179.785 243.526C180.335 242.986 180.895 242.456 181.445 241.916L181.635 241.686L181.465 241.926L181.455 241.936ZM200.925 216.016C200.805 215.776 200.675 215.526 200.555 215.286C200.705 215.506 200.865 215.716 201.015 215.936C201.255 216.236 201.495 216.536 201.435 216.476C201.505 216.536 201.215 216.286 200.925 216.026V216.016ZM204.295 225.606C204.815 224.476 205.325 223.356 205.845 222.226C211.255 212.336 210.165 203.516 202.445 196.186C197.725 200.456 198.355 204.206 201.965 209.286C204.455 212.786 204.685 217.916 205.925 222.316C205.375 223.416 204.815 224.516 204.265 225.626L204.065 225.866L204.285 225.616L204.295 225.606ZM139.055 243.556C140.155 243.966 141.255 244.386 142.345 244.796C142.415 244.486 142.495 244.166 142.565 243.856C141.365 243.786 140.165 243.726 138.965 243.656C130.885 231.396 129.475 219.286 141.495 207.216C129.595 209.046 124.605 215.826 127.475 224.356C128.755 228.156 129.685 232.196 131.685 235.586C133.485 238.626 136.545 240.926 139.045 243.556H139.055ZM155.575 238.736L155.435 238.656C159.675 243.186 163.475 241.116 167.565 238.166C176.845 231.466 186.285 224.996 196.055 218.156C194.525 212.486 194.945 205.526 184.965 206.356C174.765 207.196 164.435 206.476 154.175 206.786C146.035 207.036 137.625 216.596 137.605 225.066C137.575 235.966 140.195 238.256 153.155 238.636C153.965 238.656 154.775 238.706 155.585 238.736H155.575ZM166.265 202.216C166.265 202.046 166.265 201.876 166.265 201.696H152.575C152.575 201.866 152.575 202.036 152.565 202.216H166.265ZM153.665 244.366C153.335 244.316 153.005 244.256 152.675 244.206C152.815 244.326 152.955 244.536 153.105 244.556C153.275 244.576 153.475 244.436 153.665 244.366Z" fill="#325742" fill-opacity="0.05"/>
<path d="M373.785 126.246C380.325 122.706 386.625 118.596 393.475 115.826C397.935 114.026 399.925 112.216 399.575 107.216C398.725 95.1564 398.145 83.0564 397.945 70.9664C397.825 63.2364 390.135 64.7364 386.885 60.9564L386.925 61.0264C386.345 60.4464 385.765 59.8564 385.175 59.2764L385.235 59.3164C373.445 46.6764 368.325 31.8564 370.125 14.5564C370.805 8.04641 373.485 4.30641 380.135 2.71641C396.335 -1.15359 412.415 -0.623594 428.565 2.63641C434.665 3.86641 438.255 7.70641 436.155 13.6664C431.315 27.3764 426.205 41.0564 419.925 54.1364C417.845 58.4664 411.575 60.6264 407.745 64.3264C405.375 66.6064 402.445 69.8964 402.425 72.7564C402.335 84.1364 403.295 95.5164 403.865 106.896C404.125 112.236 406.755 114.426 412.235 114.316C417.065 114.216 421.945 115.036 426.765 115.666C433.305 116.516 438.325 119.656 439.005 126.656C439.735 134.156 437.635 141.756 430.115 144.226C412.345 150.036 393.885 150.696 375.525 147.276C370.005 146.246 367.965 141.176 369.475 135.716C370.395 132.386 372.355 129.346 373.845 126.166L373.765 126.246H373.785ZM414.575 54.4764C414.035 55.0464 413.485 55.6264 412.945 56.1964C411.825 56.6964 410.705 57.1864 409.575 57.6864C403.625 56.5964 397.675 55.4964 391.725 54.4064L391.815 54.4964C389.045 52.8764 386.275 51.2664 383.495 49.6464C379.015 36.4264 380.155 34.2464 394.275 31.1564C400.055 29.8964 406.005 29.0664 411.915 28.7764C417.495 28.4964 422.745 29.7464 423.775 39.3064C426.405 31.3964 428.225 25.9264 430.335 19.5864C411.625 28.5364 393.705 31.7464 374.285 23.3864C375.215 33.6064 377.075 42.3664 383.585 49.5464C392.535 61.9464 398.875 63.9164 409.495 57.6064C410.615 57.1064 411.735 56.6064 412.865 56.1064C413.445 55.5564 414.015 55.0164 414.585 54.4664L414.575 54.4764ZM430.865 8.77641L430.935 8.84641C415.115 3.32641 399.035 3.25641 382.895 6.93641C380.385 7.50641 376.295 10.1264 376.415 11.4764C376.695 14.5364 378.495 18.2364 380.905 20.0964C383.455 22.0764 387.425 23.0764 390.755 23.0264C398.865 22.9064 407.425 23.3464 414.915 20.8664C420.915 18.8864 425.595 12.9564 430.865 8.77641ZM399.845 119.476C390.065 120.886 381.145 123.096 375.905 131.876C371.715 138.896 374.225 143.586 382.365 143.756C393.465 143.986 404.595 143.796 415.685 143.226C419.905 143.016 425.075 142.436 427.955 139.916C431.115 137.136 433.115 132.046 433.635 127.716C433.895 125.556 430.125 121.316 427.535 120.696C420.845 119.086 413.795 118.956 407.015 118.246C406.085 122.076 405.435 124.796 404.775 127.516C404.155 127.486 403.535 127.466 402.925 127.436C402.005 125.056 401.075 122.676 399.845 119.476Z" fill="#325742" fill-opacity="0.05"/>
<path d="M372.265 592.406C374.115 592.166 375.965 591.916 377.815 591.676C378.195 592.476 378.585 593.276 378.965 594.066C374.205 597.746 369.545 601.576 364.645 605.056C360.455 608.036 355.335 609.966 351.765 613.506C344.325 620.886 336.745 619.766 327.915 616.696C323.895 615.296 318.175 615.616 314.335 617.456C292.145 628.116 270.455 639.816 248.195 650.316C242.485 653.006 235.195 653.856 228.895 653.176C225.715 652.836 221.345 647.416 220.865 643.836C220.525 641.346 225.385 636.586 228.795 635.436C241.095 631.296 253.955 628.816 266.245 624.666C283.145 618.956 299.735 612.326 316.425 605.996C317.895 605.436 319.915 604.476 320.325 603.256C323.215 594.646 331.295 593.566 338.065 590.606C348.385 586.096 358.745 581.676 371.095 576.366C369.215 579.456 368.265 581.016 367.315 582.576L367.095 582.746L367.295 582.566C369.615 583.606 372.805 584.086 373.965 585.876C374.815 587.186 372.975 590.226 372.335 592.496C371.205 592.996 370.075 593.496 368.945 593.996L368.745 594.156L368.925 593.976C370.035 593.456 371.145 592.936 372.255 592.416L372.265 592.406Z" fill="#325742" fill-opacity="0.05"/>
<path d="M219.205 450.756C215.675 450.756 212.125 451.036 208.625 450.706C197.925 449.686 196.075 446.656 195.435 435.036C194.465 417.466 192.885 399.926 191.075 382.426C190.305 374.976 192.885 371.176 200.225 370.026C212.005 368.186 223.665 365.366 235.505 364.266C247.625 363.146 250.975 366.476 250.345 378.516C249.555 393.656 247.715 408.746 246.345 423.856C246.075 426.826 245.645 429.796 245.645 432.766C245.665 446.256 241.775 450.406 228.165 451.026C225.185 451.166 222.195 451.046 219.205 451.046C219.205 450.956 219.205 450.856 219.205 450.766V450.756ZM235.335 434.286C241.185 432.426 243.655 423.896 241.825 416.846C240.195 421.316 237.805 427.846 235.415 434.376C234.385 434.546 233.365 434.726 232.335 434.896C232.405 435.116 232.475 435.336 232.555 435.546C233.485 435.126 234.415 434.706 235.345 434.286H235.335ZM228.735 445.736L241.305 442.546C241.065 441.656 240.825 440.756 240.585 439.866C227.525 440.746 214.465 441.616 201.405 442.496C210.135 446.826 219.315 447.576 228.805 445.666L228.735 445.736ZM240.225 406.446L240.335 406.816L240.125 406.536C227.935 400.006 215.905 403.346 203.875 407.256C216.025 408.836 228.215 412.706 240.225 406.446ZM233.625 378.906C237.325 376.836 241.035 374.776 244.735 372.706C244.335 371.736 243.945 370.766 243.545 369.806C227.645 367.436 212.925 373.476 197.645 375.506C197.725 376.616 197.805 377.726 197.885 378.836H233.695L233.615 378.906H233.625ZM199.205 402.566L199.235 400.286H243.865C244.705 393.036 245.475 386.326 246.335 378.926C234.115 384.656 224.945 386.106 212.275 384.696C195.285 382.796 193.465 384.966 198.315 401.336C198.455 401.796 198.905 402.156 199.205 402.566ZM223.055 436.616C210.801 436.263 203.185 434.423 200.205 431.096C202.255 437.716 203.355 437.986 223.055 436.616ZM198.405 420.896C198.615 421.786 198.515 421.336 198.405 420.896C198.495 421.796 198.445 421.346 198.405 420.896ZM198.895 412.446C198.755 412.846 198.595 413.246 198.495 413.656C198.485 413.706 198.805 413.836 198.975 413.926C199.145 413.526 199.335 413.136 199.465 412.726C199.465 412.696 199.115 412.546 198.895 412.436V412.446Z" fill="#325742" fill-opacity="0.05"/>
<path d="M587.255 237.526C589.895 235.476 593.515 233.946 594.955 231.256C597.975 225.626 602.075 224.466 606.965 227.336C618.635 234.186 631.235 237.316 644.525 238.996C647.615 239.386 650.285 243.126 653.145 245.326C650.295 248.576 647.685 254.286 644.555 254.586C636.035 255.406 630.485 259.256 624.595 265.076C615.325 274.236 602.795 269.976 599.265 257.976C598.545 255.536 594.805 252.936 592.045 252.356C586.005 251.086 579.685 251.266 573.535 250.436C571.615 250.176 568.565 248.766 568.365 247.506C568.045 245.526 569.085 242.216 570.645 241.266C575.245 238.456 580.375 236.536 585.295 234.266L587.255 237.536V237.526Z" fill="#325742" fill-opacity="0.05"/>
<path d="M587.125 82.1764C601.245 83.0764 606.385 89.1064 603.135 102.556C599.775 116.436 597.555 131.006 584.325 140.066C583.305 140.766 582.915 142.936 582.895 144.426C582.835 150.386 583.035 156.356 583.155 162.316C583.245 167.116 585.385 169.226 590.375 168.206C592.465 167.776 594.845 167.496 596.825 168.076C599.965 168.986 604.625 170.036 605.435 172.216C606.295 174.556 604.255 179.076 602.085 181.226C593.025 190.196 581.795 193.396 569.275 191.036C567.005 190.606 564.335 188.566 563.365 186.546C562.855 185.486 565.305 182.526 566.955 180.996C569.115 178.996 572.335 177.986 574.135 175.766C576.305 173.086 578.195 169.736 578.855 166.406C579.575 162.786 578.595 158.856 578.615 155.066C578.665 146.626 576.535 140.496 568.485 135.066C554.685 125.756 553.845 109.946 554.005 94.8364C554.025 92.6264 557.785 89.2864 560.425 88.5064C569.185 85.8964 578.225 84.2164 587.155 82.1864L587.125 82.1764ZM588.985 129.366L589.295 129.146L589.075 129.456C588.505 130.036 587.935 130.606 587.365 131.186C585.755 131.716 584.135 132.236 582.525 132.766C581.405 132.766 580.285 132.766 579.155 132.766C577.555 132.206 575.955 131.656 574.355 131.096C572.635 130.166 570.915 129.236 569.195 128.296C569.175 129.966 569.575 130.636 570.155 131.086C570.945 131.716 571.855 132.186 572.715 132.716C578.095 136.926 583.015 136.996 587.275 131.086C587.845 130.516 588.415 129.936 588.985 129.366ZM564.505 124.556L564.675 124.756L564.465 124.566L562.885 121.226C565.275 109.296 575.315 114.466 582.155 112.856C587.435 111.616 592.235 112.886 594.135 119.536C595.925 112.036 597.705 104.536 599.975 95.0164C585.865 102.086 573.615 108.696 557.555 103.726C559.805 110.956 561.395 116.056 562.975 121.146C563.485 122.286 563.995 123.416 564.505 124.546V124.556ZM557.795 94.3764C566.365 104.176 585.175 101.116 596.845 88.6564C582.815 86.4764 570.735 88.9764 557.795 94.3764ZM567.575 184.756C580.465 189.916 595.265 184.606 600.675 174.516C591.905 170.236 586.895 171.846 584.695 177.406C578.305 180.146 573.695 182.126 567.575 184.756Z" fill="#325742" fill-opacity="0.05"/>
<path d="M84.2846 370.846C66.8446 368.666 49.3846 366.596 31.9646 364.286C20.1746 362.716 11.5446 356.046 4.96465 346.486C-4.74535 332.396 0.204646 315.956 16.1746 308.986C39.4246 298.836 63.7346 296.726 88.7046 299.146C95.4446 299.796 102.295 300.496 109.005 299.966C125.805 298.636 140.465 304.876 154.715 312.266C162.465 316.286 170.385 321.546 169.885 331.646C169.385 341.786 162.745 348.406 153.535 352.076C139.495 357.676 125.595 363.886 111.125 368.066C102.765 370.486 93.3946 369.456 84.4846 369.986C84.4146 370.276 84.3446 370.556 84.2746 370.846H84.2846ZM157.015 320.116L157.055 320.166C145.255 310.966 131.805 305.676 116.975 304.656C101.315 303.576 85.5946 303.286 69.8946 302.736C51.0946 302.076 33.3046 306.506 16.2946 314.106C6.36465 318.546 1.27465 330.526 5.97465 339.116C11.2646 348.786 18.2246 357.506 30.1746 358.956C48.4146 361.166 66.8046 362.126 84.9946 364.626C111.795 368.306 134.155 356.706 156.665 345.246C158.285 344.416 159.575 342.816 160.825 341.406C167.715 333.636 166.235 325.556 156.995 320.106L157.015 320.116Z" fill="#325742" fill-opacity="0.05"/>
<path d="M532.925 477.966C536.865 482.536 539.335 484.616 540.815 487.246C547.325 498.836 552.955 510.946 560.015 522.176C569.785 537.716 580.615 552.596 590.845 567.846C593.385 571.636 595.855 575.626 597.425 579.866C598.175 581.886 596.745 584.726 596.305 587.186C594.185 586.296 591.325 586.006 590.065 584.426C582.275 574.706 574.785 564.736 567.325 554.756C565.065 551.726 563.655 547.956 561.075 545.286C557.125 541.206 552.535 537.736 548.135 534.116C545.695 532.106 541.625 530.816 540.775 528.336C536.555 516.066 532.805 503.606 529.735 490.996C528.965 487.856 531.345 483.946 532.925 477.946V477.966Z" fill="#325742" fill-opacity="0.05"/>
<path d="M339.555 530.396C329.805 530.956 319.575 532.696 311.265 526.156C305.735 521.806 301.185 516.066 296.785 510.486C293.715 506.586 295.185 503.686 300.205 502.236C315.465 497.816 330.645 493.106 345.865 488.536C347.425 488.066 349.085 487.916 350.585 487.326C362.425 482.666 362.135 482.656 362.545 495.916C363.015 511.266 357.935 522.966 342.815 528.816L342.885 528.776C341.755 529.356 340.625 529.926 339.495 530.506L339.545 530.416L339.555 530.396ZM354.235 502.666L355.965 504.376C353.555 508.806 351.205 513.266 348.725 517.646C347.475 519.836 345.975 521.886 344.595 523.996C344.265 524.146 343.945 524.306 343.945 524.296C343.935 524.296 344.225 524.106 344.515 523.896C348.705 519.806 353.225 515.986 356.865 511.456C357.875 510.196 356.295 506.836 355.895 504.446C355.315 503.876 354.735 503.306 354.155 502.736L354.235 502.656V502.666ZM336.305 496.096C336.725 495.936 337.135 495.786 337.065 495.816C337.145 495.766 336.775 495.976 336.395 496.196C335.825 496.766 335.265 497.346 334.695 497.916C334.385 498.096 334.085 498.266 334.065 498.276C334.065 498.276 334.345 498.046 334.615 497.836C335.185 497.256 335.745 496.686 336.315 496.106L336.305 496.096ZM300.445 510.956L300.535 510.876C301.055 511.936 301.575 513.006 302.095 514.076C302.675 514.636 303.255 515.206 303.835 515.766C308.675 519.036 313.515 522.296 318.355 525.566C322.665 526.066 326.985 526.576 331.305 527.076C332.015 527.016 332.725 526.956 331.625 527.046C332.655 526.566 332.015 526.866 331.375 527.166C327.005 526.676 322.635 526.176 318.265 525.686C313.425 522.406 308.585 519.126 303.745 515.846C303.165 515.276 302.585 514.716 302.005 514.146C301.485 513.086 300.965 512.016 300.445 510.956ZM318.485 502.866C303.755 506.656 303.125 507.166 306.725 512.686C310.625 509.376 314.505 506.076 318.385 502.776L318.485 502.866ZM323.265 506.036C319.745 509.136 316.215 512.236 311.805 516.126C315.365 517.846 317.565 518.916 320.745 520.446C321.685 514.806 322.435 510.366 323.175 505.936L323.505 505.826L323.265 506.036ZM327.185 523.506C331.945 523.226 335.675 523.786 338.615 522.516C340.245 521.806 341.975 517.356 341.205 515.806C338.925 511.166 335.425 507.136 331.115 501.046C329.645 509.426 328.525 515.846 327.185 523.506ZM348.975 515.896C350.645 511.136 352.815 506.886 352.195 506.426C348.455 503.676 344.075 501.806 339.915 499.636C339.475 500.266 339.035 500.896 338.595 501.516C341.465 505.486 344.335 509.466 348.975 515.886V515.896ZM356.685 491.216C351.605 493.236 348.555 494.446 345.505 495.656C348.975 497.556 352.445 497.926 355.895 497.786C356.185 497.776 356.335 494.306 356.685 491.216ZM358.495 487.446C358.335 487.316 358.185 487.186 358.025 487.046C357.895 487.326 357.755 487.596 357.625 487.876C357.825 487.916 358.075 488.056 358.215 487.976C358.365 487.896 358.405 487.626 358.495 487.436V487.446Z" fill="#325742" fill-opacity="0.05"/>
<path d="M380.395 184.976C389.685 188.396 398.825 192.306 408.295 195.086C415.285 197.136 415.275 200.096 412.005 205.486C405.365 216.436 390.735 220.106 376.745 213.976C367.185 209.786 361.865 196.966 365.455 185.596C365.895 184.216 369.205 182.976 371.145 183.026C374.275 183.116 377.375 184.326 380.485 185.066L380.395 184.976ZM370.565 204.366L372.295 206.046C373.885 207.686 375.465 209.336 377.055 210.976L377.235 211.206L377.025 210.976C375.415 209.366 373.805 207.746 372.195 206.136C371.615 205.576 371.045 205.026 370.465 204.466C370.315 204.096 370.165 203.716 370.125 203.626C370.165 203.696 370.355 204.036 370.555 204.376L370.565 204.366ZM403.135 209.356C402.075 209.896 401.015 210.436 399.965 210.976L399.875 210.886C400.935 210.346 401.995 209.796 403.055 209.256C403.455 209.086 403.845 208.916 403.765 208.956C403.855 208.896 403.495 209.126 403.145 209.356H403.135ZM399.875 198.006L399.965 197.916C401.955 199.586 403.955 201.246 405.945 202.916C406.365 202.186 406.785 201.456 407.195 200.726C404.755 199.816 402.315 198.916 399.875 198.006ZM394.975 201.266L395.085 201.156C395.455 204.086 394.365 208.606 400.595 204.956C398.725 203.726 396.845 202.496 394.975 201.266ZM373.825 201.266L373.755 201.186C376.265 200.016 378.775 198.846 381.285 197.666C380.395 196.616 379.505 195.566 378.615 194.516C377.015 196.766 375.425 199.016 373.825 201.266ZM380.365 206.016C380.165 212.016 386.375 211.276 387.195 209.846C388.995 206.726 388.575 202.326 389.065 198.456C388.275 198.336 387.485 198.216 386.695 198.086C384.555 200.756 382.425 203.426 380.285 206.086L380.365 206.016ZM373.435 192.146C373.585 191.506 373.745 190.866 373.895 190.226C372.755 189.896 371.615 189.566 370.485 189.236C370.355 189.966 369.995 191.296 370.125 191.346C371.175 191.746 372.325 191.916 373.435 192.146ZM394.915 213.656C394.455 213.396 394.205 213.256 393.945 213.116C393.945 213.296 393.915 213.616 393.975 213.636C394.175 213.696 394.415 213.656 394.915 213.656Z" fill="#325742" fill-opacity="0.05"/>
<path d="M645.255 221.976C649.065 222.616 654.665 223.516 660.255 224.496C664.365 225.216 667.975 226.696 666.305 231.876C664.775 236.616 661.335 238.966 656.225 237.496C650.275 235.776 644.245 234.156 638.555 231.786C635.965 230.706 634.085 227.926 631.885 225.926C634.645 224.606 637.375 223.196 640.205 222.036C641.135 221.656 642.345 221.976 645.255 221.976Z" fill="#325742" fill-opacity="0.05"/>
<path d="M342.835 530.466C341.745 530.436 340.655 530.416 339.555 530.386L339.505 530.476C340.635 530.476 341.765 530.486 342.905 530.496L342.835 530.466Z" fill="#325742" fill-opacity="0.05"/>
<path d="M150.535 266.326C149.425 266.326 148.305 266.336 147.195 266.346L147.145 266.416C148.295 266.416 149.435 266.416 150.585 266.416L150.535 266.336V266.326Z" fill="#325742" fill-opacity="0.05"/>
<path d="M386.895 60.9664C386.345 60.9864 385.805 61.0064 385.255 61.0164L385.175 61.0564C385.765 61.0564 386.345 61.0464 386.935 61.0364L386.895 60.9664Z" fill="#325742" fill-opacity="0.05"/>
<path d="M385.255 61.0164C385.255 60.4564 385.255 59.8964 385.255 59.3264L385.185 59.2864C385.185 59.8764 385.185 60.4664 385.175 61.0564L385.255 61.0164Z" fill="#325742" fill-opacity="0.05"/>
<path d="M293.945 396.876C294.485 396.336 295.035 395.786 295.585 395.246L295.505 395.167C294.955 395.707 294.415 396.257 293.865 396.797L293.945 396.876Z" fill="#325742" fill-opacity="0.05"/>
<path d="M297.165 393.526C296.605 394.066 296.055 394.616 295.495 395.156L295.575 395.236C296.125 394.686 296.675 394.146 297.235 393.596L297.165 393.526Z" fill="#325742" fill-opacity="0.05"/>
<path d="M342.825 528.796C342.825 529.356 342.825 529.906 342.825 530.466L342.895 530.496C342.895 529.916 342.895 529.336 342.895 528.746L342.825 528.786V528.796Z" fill="#325742" fill-opacity="0.05"/>
<path d="M380.385 183.166C380.385 183.766 380.385 184.366 380.385 184.976L380.475 185.066C380.475 184.406 380.475 183.746 380.465 183.086L380.375 183.166H380.385Z" fill="#325742" fill-opacity="0.05"/>
<path d="M298.795 257.866C305.175 258.316 314.095 259.466 317.125 268.166C318.765 272.886 317.595 280.336 314.715 284.496C309.495 292.026 300.615 291.286 292.455 289.276C282.035 286.716 273.075 277.466 273.795 270.416C274.515 263.346 284.685 257.806 298.795 257.876V257.866ZM298.315 287.066C307.595 285.756 313.485 281.706 314.265 275.136C314.975 269.146 310.395 264.186 301.575 263.436C295.885 262.956 289.655 263.516 284.335 265.456C277.115 268.086 276.375 272.636 282.175 277.456C286.925 281.416 292.895 283.916 298.315 287.056V287.066Z" fill="#325742" fill-opacity="0.05"/>
<path d="M365.685 445.756C365.685 445.756 365.615 445.686 365.625 445.686L365.685 445.756Z" fill="#325742" fill-opacity="0.05"/>
<path d="M530.355 313.646C530.355 313.646 530.295 313.696 530.305 313.696L530.355 313.646Z" fill="#325742" fill-opacity="0.05"/>
<path d="M398.325 387.017C398.085 379.987 401.315 375.277 408.535 373.177C406.725 376.167 404.915 379.147 403.105 382.137L403.185 382.056C405.285 384.656 407.375 387.256 410.095 390.626C407.815 392.256 404.655 394.506 401.505 396.746L401.575 396.707C400.995 397.287 400.415 397.867 399.825 398.457L399.865 398.387C402.215 400.237 404.575 402.087 405.545 402.857C405.855 408.387 406.135 413.597 406.425 418.797C407.175 418.767 407.925 418.727 408.665 418.697C408.205 418.927 407.675 419.457 407.305 419.357C400.875 417.677 399.725 413.816 399.035 407.126C398.535 402.246 392.695 398.136 398.965 392.816C399.795 392.116 398.535 388.956 398.235 386.936L398.305 387.017H398.325Z" fill="#325742" fill-opacity="0.05"/>
<path d="M401.515 398.436C400.965 398.416 400.415 398.396 399.865 398.386L399.825 398.456C400.415 398.456 400.995 398.456 401.585 398.466L401.515 398.436Z" fill="#325742" fill-opacity="0.05"/>
<path d="M401.505 396.746C401.505 397.306 401.505 397.866 401.505 398.436L401.575 398.466C401.575 397.876 401.575 397.296 401.565 396.706L401.495 396.746H401.505Z" fill="#325742" fill-opacity="0.05"/>
<path d="M398.255 386.946C398.255 386.946 398.325 387.016 398.325 387.026L398.255 386.946Z" fill="#325742" fill-opacity="0.05"/>
<path d="M538.105 346.746C538.105 346.476 538.085 346.206 538.105 345.936C539.695 325.236 542.305 323.896 559.835 328.016C566.395 329.556 572.995 331.376 579.165 334.036C586.005 336.976 588.955 342.986 586.325 350.096C583.425 357.906 580.335 365.946 575.645 372.716C567.395 384.606 553.815 384.206 546.385 371.816C541.915 364.366 539.605 355.626 536.335 347.466C536.925 347.226 537.525 346.986 538.115 346.746H538.105Z" fill="#325742" fill-opacity="0.05"/>
<path d="M194.535 548.456C194.535 548.456 194.465 548.386 194.475 548.386L194.535 548.456Z" fill="#325742" fill-opacity="0.05"/>
<path d="M492.805 108.216C492.805 108.216 492.865 108.276 492.855 108.276L492.805 108.216Z" fill="#325742" fill-opacity="0.05"/>
<path d="M470.135 582.457C462.235 579.547 454.595 577.517 447.765 573.947C443.285 571.607 438.295 567.656 436.635 563.256C435.175 559.376 436.655 552.706 439.425 549.486C441.385 547.206 448.005 547.457 451.915 548.657C460.085 551.167 471.645 573.507 470.135 582.457Z" fill="#325742" fill-opacity="0.05"/>
<path d="M427.695 543.576C427.095 542.976 426.495 542.376 425.895 541.776L427.695 543.576Z" fill="#325742" fill-opacity="0.05"/>
<path d="M163.575 236.976C160.865 237.536 158.145 238.086 155.435 238.646C155.435 238.646 155.585 238.726 155.585 238.736C150.445 235.586 143.505 233.836 144.075 225.826C144.515 219.566 151.905 213.776 160.655 212.556C165.955 211.816 171.315 211.466 176.655 210.946L176.585 211.016C180.295 211.906 184.005 212.806 189.245 214.066C179.705 222.596 171.595 229.836 163.485 237.086L163.585 236.986L163.575 236.976Z" fill="#325742" fill-opacity="0.05"/>
<path d="M89.3547 361.426C75.9747 359.286 59.3747 356.896 42.8847 353.866C34.9547 352.406 29.6947 343.786 29.7147 334.526C29.7347 326.166 35.2447 323.686 42.1147 322.066C47.1047 320.886 51.8247 318.326 56.8447 317.576C67.1847 316.026 77.7047 314.046 88.0547 314.526C100.435 315.106 112.705 318.036 125.015 320.026C131.945 321.146 137.355 324.336 139.035 331.726C140.695 339.046 138.335 345.036 132.595 349.806C120.955 359.476 106.825 360.286 89.3647 361.436L89.3547 361.426ZM84.5647 355.766C110.345 355.836 120.075 353.456 128.305 347.266C133.135 343.636 136.075 338.606 133.675 333.206C132.135 329.736 127.725 326.106 123.995 325.286C97.1247 319.326 70.1747 314.346 43.4347 326.556C38.9947 328.586 34.6047 329.446 34.9847 335.536C35.3647 341.586 36.8947 347.476 43.5547 348.776C59.7447 351.916 76.0647 354.356 84.5547 355.776L84.5647 355.766Z" fill="#325742" fill-opacity="0.05"/>
<path d="M157.015 320.116C157.015 320.116 157.065 320.166 157.055 320.166L157.015 320.116Z" fill="#325742" fill-opacity="0.05"/>
<path d="M373.825 201.266C374.375 200.716 374.915 200.166 375.465 199.616L375.395 199.546C374.845 200.096 374.295 200.646 373.745 201.186L373.815 201.266H373.825Z" fill="#325742" fill-opacity="0.05"/>
</svg>
