<?xml version="1.0" encoding="UTF-8"?>
<svg id="Layer_2" data-name="Layer 2" xmlns="http://www.w3.org/2000/svg" viewBox="0 0 509.45 449.5">
  <g id="illustrations">
    <g>
      <g id="ZAp4JW">
        <g>
          <path d="M240.44,96.88c-17.48-17.48-50.84-42.95-77.14-34.96-13.03,3.96-50.9,37.59-55.41,50.59-.65,1.86-1.64,5.47-1.68,7.32-.12,4.79,3.7,10.96-.11,14.89-5.99,4.84-12.96,11.54-19.03,15.96-3.12,2.27-8.1,3.37-11.45,6.55-2.37,2.25-4,6.44-6.54,8.46-3.23,2.58-8.11,3.63-11.86,7.14-6.36,5.96-9.45,9.43-16.61,15.39-5.03,4.19-14.55,15.76-14.42,22.39.05,2.55,2.7,7.25,2.64,8.12-.1,1.4-4.18,3.1-4.72,6.03-2.13,11.73,18.24,40.78,26.49,49.47,14.35,15.13,33.85,27.85,54.53,31.92.02,0,.03-.01.05-.01,4.39-.23,8.79-.06,13.17.38,14.66.48,22.38-6.38,31.47-18.04.28-.36.31-.75.45-1.04.01-.04.02-.09.04-.13,1.27-2.35,3.16-4.28,4.82-6.35.58-.72,1.19-1.43,1.99-1.93.04-.03.09-.04.13-.07,0-.01,0-.02,0-.03,3.34-3.44,5.15-8.24,8.34-11.74,10.8-11.85,18.08-22.44,26.94-36.06,1.52-2.34,7.78-15.12,8.78-15.71,9.42.1,17.16-.25,25.49-5.02,8.96-5.13,38.72-38.17,42.35-47.65,8.75-22.9-13.6-50.79-28.7-65.88ZM37.63,205.26c.58-1.44,14.88-17.24,16.91-19.09,2.93-2.66,6.68-3.75,9.88-6.12,5.37-3.99,8.57-8.87,13.17-12.83,10.5-9.03,22.25-16.19,31.21-26.74.62-.73-.02-1.88,2.28-1.26l2.82,7.69-.72,1.82-76.08,64.48c.09-2.67-.51-5.35.53-7.96ZM100.05,292.81c-19.81-8.96-40.96-25.98-52.38-44.67-3.15-5.15-10.1-18.48-8.4-24.2l76.34-70.71c2.35-.51,5.74,8.02,7.06,9.91,5.15,7.32,11.65,15.38,18,21.5,10.58,10.2,20.72,16.03,33.14,23.37.82.49,1.67-.29,1.27,1.71l-28.99,28.01c-7.39,12.77-18.04,23.27-27.52,34.48-2.54,3-15.95,21.22-18.53,20.6ZM144.06,283.7c-9.41,10.57-19.28,15.79-33.97,12.52-.44-1.73.72-2,1.49-3,3.59-4.66,9.94-8.45,13.51-13.49,6.3-8.89,12.8-19.66,19.98-28.02,8.84-10.3,18.91-20.03,28.54-29.46,2.6-2.54,6.44-7.55,7.57-10.96l13.91,2.94c-17.62,21.94-32.39,48.53-51.03,69.46ZM258.8,157.44c-2.34,7.91-21.57,29.33-28.18,35.84-4.68,4.61-12.61,11.9-19.1,12.88-36.55,5.52-91.69-46.15-95.33-81.54-.84-8.17,1.86-13.87,6.48-20.31l29.4-26.08c3.28,15.48,13.34,29.24,23.5,41.01,13.55,15.69,47.32,45.13,68.89,43.94,1.19-.07,7.04-1.35,4.63-3.46-1.2-1.04-15.37-4.02-19.29-5.71-20.87-9.04-66.25-49.68-70.48-72.51-1.37-7.4-.53-8.98,6.54-10.99,21.13-6.02,53.65,19.71,67.84,34.11,10.84,10.99,29.8,36.92,25.09,52.83Z" style="fill: #eae6e3;"/>
          <path d="M349.03,16.26c2.96,4.92-3.47,9.19-6.92,12.47-17.52,16.66-40.37,36.95-59.54,51.46-2.77,2.09-5.73,4.54-9.47,4.02-1.79-1.63,9.97-12.56,11.47-14.02,13.04-12.68,27.05-25.24,40.51-37.49,3.22-2.93,20.39-19.02,23.95-16.45Z" style="fill: #eae6e3;"/>
          <path d="M343.85,77.41c3.68-.48,5.54,1.25,3.76,4.82-2.38,4.77-41.82,19.78-48.49,24.54-6.69.72-3.58-2.83-.5-5.53,5.39-4.72,38.83-23,45.23-23.84Z" style="fill: #eae6e3;"/>
          <path d="M341.8,125.67c3.55-.21,19.59-2.39,15.85,4.56-2.52,4.7-18.07,2.56-23.1,2.94-3.96.31-29.35,5.01-29.44-.46,1.31-1.53,2.7-2.72,4.7-3.28,7.48-2.07,23.79-3.29,31.99-3.77Z" style="fill: #eae6e3;"/>
          <path d="M233.94.37c.86,1.61,1.21,3.23.97,5.08-.94,7.31-6.26,24.73-8.8,32.29-1.03,3.07-3.88,15.06-8.43,11.58-1.27-.97-.63-4.84-.35-6.37,1.58-8.55,6.82-30.59,9.83-38.16,1.53-3.86,1.94-5.63,6.77-4.42Z" style="fill: #eae6e3;"/>
          <path d="M280.58,10.57l3.42,2.26c.5,2.08-19.62,32.28-22.51,36.3-1.2,1.66-5.96,8.48-7.89,8.09-1.76-1.26-1.68-2.31-1.33-4.26.6-3.41,20.14-34.74,23.4-38.65,1.36-1.63,2.7-3.25,4.91-3.73Z" style="fill: #eae6e3;"/>
          <path d="M74,442.31c.51.77.1,3-.39,3.92-3.78,7.14-34.24,1.31-38.57-5.45-6.5-10.14,15.98-1.52,19.85-.86,3.07.52,18.51,1.48,19.12,2.38Z" style="fill: #eae6e3;"/>
          <path d="M3.7,390.3c1.37-.45,2.88-.19,3.92.9,2.17,2.26,5.92,16.28,8.32,20.68,2.61,4.8,10.55,10.31,5.53,15.28-6.86-.16-11.61-7.87-14.23-13.57-1.67-3.63-8.15-21.75-3.54-23.28Z" style="fill: #eae6e3;"/>
          <path d="M13.08,334.23c2.8,7.6-2.17,15.33-3.75,22.73-1.21,5.66.03,12.69-3.39,18.09-4.22,2.55-5.71-4.31-5.91-7.28-.26-3.93,1.44-12.63,2.52-16.58.71-2.6,5.48-14.89,6.97-16.03,1.18-.89,2.09-1.17,3.56-.92Z" style="fill: #eae6e3;"/>
          <path d="M138.16,418.16c-.4-.47-.16-3.32.14-4.22.79-2.37,17.68-14.55,20.85-16.15,4.35-2.2,15.82-5.28,10.48,2.48-2.14,3.1-23.98,17.95-27.4,18.42-.72.1-3.91-.34-4.07-.53Z" style="fill: #eae6e3;"/>
          <path d="M88.13,444.17c-.11-7.75,10.74-9.1,16.64-11.77,2.84-1.28,12.84-7.34,14.69-6.97,3.36.66,2.8,4.43,1.1,6.77-3.52,4.85-29.04,16.98-32.43,11.97Z" style="fill: #eae6e3;"/>
          <path d="M18.1,322.22c-1.04-7.35,4.62-14.04,9.02-19.47,2.44-3,6.82-9.12,10.56-9.51,10.47-1.11-1.03,11.34-3.61,14.46-1.82,2.2-10.93,12.61-12.43,13.57-1.23.79-1.98,1.25-3.54.95Z" style="fill: #eae6e3;"/>
          <path d="M194.4,395.92c-1.48-1.76-1.13-3.63-.16-5.57,3.39-2.13,23.04,3.89,26.81,6.41,2.79,1.87,8.21,9.04,2.53,9.51-4.09-.47-7.37-3.49-11.21-4.83-3.95-1.37-16.2-3.42-17.97-5.52Z" style="fill: #eae6e3;"/>
          <path d="M172.09,134.22c-2.69,2.58-19.38-18.65-21.22-21.27-2.94-4.21-6.9-9.93-8.09-14.9-.54-2.25-1.65-4.13.82-5.8l28.49,41.98Z" style="fill: #eae6e3;"/>
          <path d="M161.09,211.22c-9.13-.15-18.59-6.28-25.47-12.02-2.27-1.9-19.56-19.92-17.52-21.97,1.88-.43,2.37,1.06,3.5,1.99,6.17,5.11,11.38,11.8,18.03,16.97,6.45,5.03,12.9,7.62,19.17,11.83,1.3.87,2.72,1.14,2.3,3.19Z" style="fill: #eae6e3;"/>
          <path d="M98.09,193.2c-.28.4-6.51,4.15-8.01,5.5-1.96,1.77-11.91,13.46-13.98,11.51.46-4.81,16.93-20.69,20.43-19.96.85.18,2.11,2.18,1.56,2.95Z" style="fill: #eae6e3;"/>
          <path d="M56.1,230.22c-2.41-3.97,11-16.05,12.5-15.98,1.12.05,1.46,1.71,1.08,3.05-.6,2.16-12.81,13.94-13.58,12.93Z" style="fill: #eae6e3;"/>
        </g>
      </g>
      <g>
        <path d="M70.35,359.04c0-1.31,1.73-5.09,2.62-7.71,1.78-4.51,2.41-7.34,2.88-8.71.52-1.52,1.31-2.1,2.31-1.84,1.42.37,1.73,1.57,1.1,4.04-1.36,4.77-3.15,9.49-4.98,14.16-.63,1.36-1.52,2.2-2.83,1.68-.68-.26-1.05-.84-1.1-1.63Z" style="fill: #eae6e3;"/>
        <path d="M80.53,359.14c0-.73,1.21-4.82,2.31-7.66,1.94-5.46,3.51-11.07,5.66-11.07.68-.05,1.31.26,1.78.84.73.89,1.73,4.51,2.2,6.87l.47,1.94c.26.79.42,1.15,1,1.15.68,0,.94-1.05,1.73-3.15,1.05-2.88,2.2-5.77,3.2-6.61.37-.26.73-.42,1.26-.42.79,0,1.83.73,1.78,1.94,0,.37-.16.79-.37,1.26-1.99,3.88-2.57,5.66-4.62,11.49-.42,1.21-.89,2.62-1.52,4.25-.31.79-.94,1.26-1.68,1.26s-1.47-.37-2.05-1.15c-.94-1.31-1.05-2.99-2.73-9.81-.26-.68-1.1-.73-1.42-.1-1.26,2.57-2.46,6.45-3.2,9.02-.42,1.47-1.26,2.2-2.36,1.94-.84-.21-1.47-1-1.47-1.99Z" style="fill: #eae6e3;"/>
        <path d="M117.03,356.68c.21-5.3,4.14-14.11,7.81-16.62,1.99-1.42,3.93-1.21,5.56.58,1.21,1.42,1.68,3.25,1.15,4.41-.63,1.26-2.31,1.42-3.15.26-.63-.79-.42-1.42-1.15-1.68-2.2-.47-6.5,10.07-6.24,13.48.05,1.68,1.36,2.31,2.78,1.31,1.05-.79,2.73-2.94,3.3-3.25,1-.47,2.1-.16,2.52.79,1.1,2.05-2.94,5.66-5.14,6.56-3.93,1.47-7.6-1.36-7.45-5.82Z" style="fill: #eae6e3;"/>
        <path d="M144.4,358.72c.05-.68-.37-1.26-1.05-1.31l-3.36-.16c-.58,0-.94.26-1.36.89-1,1.57-2.26,3.51-2.67,3.88-.68.47-1.57.47-2.26,0-1-.63-1.05-1.78,0-3.41l4.41-7.34c1.83-3.09,6.35-9.07,8.23-10.23,1.68-1,3.36-.21,3.62,1.62.26,2.15-1.36,16.68-1.94,18.78-.26.94-1.1,1.47-2.04,1.31-1.78-.26-1.57-1.78-1.57-4.04ZM145.24,352.32c.37-2.62.37-3.04-.1-3.2-1.05-.47-3.36,2.88-2.83,3.83.21.47.63.52,1.52.52.73,0,1.31-.37,1.42-1.15Z" style="fill: #eae6e3;"/>
        <path d="M152.74,359.14c-.31-1.05.11-2.15,1.05-2.62.89-.47,1.68-.26,2.36.63.79,1.1,1.89,1.62,3.3,1.52,2.88-.26,3.3-3.67.89-6.08-1.15-1.05-3.88-3.09-4.51-4.04-1.05-1.57-1-2.99.05-4.46,1.89-2.36,6.03-4.14,9.75-4.2,1.42,0,2.2.52,2.36,1.57.21,1.15-.47,1.84-2.31,2.26-1.47.21-2.94.42-4.35,1.1-2.25,1.1-2.25,1.63-.42,3.09,3.15,2.36,4.56,4.72,4.93,7.92.31,3.04-2.04,5.98-5.24,6.61-3.2.63-7.24-1.05-7.87-3.3Z" style="fill: #eae6e3;"/>
        <path d="M170.15,358.46c0-1.78.37-3.51.73-5.24.47-2.15,2.41-8.81,2.94-10.07.94-2.46,1.99-3.3,4.04-3.2,3.51,0,7.34.05,7.5,2.2.37,2.41-3.36,2.2-6.24,1.73-1-.11-1.57.05-1.83,1.1-.21.89-.47,1.68-.68,2.52-.21.63.1,1.15.84,1.26,2.25.21,3.78,0,3.99,1.84.11,2.46-2.46,1.99-5.09,2.25-1.05.05-1.42.31-1.68,1.26-.16.63-.26,1.36-.37,2.04-.05.84.37,1.31,1.31,1.31,3.3,0,5.3-1.26,5.77,1.15.16.73-.26,1.52-1.05,1.94-.84.42-6.61,1-7.29,1-1.94-.16-2.88-1.15-2.88-3.09Z" style="fill: #eae6e3;"/>
        <path d="M201.77,359.72c-2.88-4.46-.26-12.27,3.78-16.68.73-.79,1.57-1.42,2.41-1.83,1.36-.52,2.2-.31,3.09.73.42.52.79.79,1.26,1,1.62.89,2.1,3.83,1.68,6.14-.84,4.41-2.52,9.02-5.56,11.59-2.31,1.99-4.98,1.57-6.66-.94ZM210.01,346.08c-.37-1-1.15-.79-1.99.05-2.04,2.46-3.57,5.35-3.57,8.81,0,1.47.31,2.41,1.15,2.52,2.1.37,5.19-8.76,4.41-11.38Z" style="fill: #eae6e3;"/>
        <path d="M216.25,360.29c-.05-.84.42-2.1.94-3.51.94-2.36,3.25-10.49,3.67-12.95.26-2.15,1.31-3.36,2.99-3.62,5.19-1.1,10.23-2.46,10.59.58.1,1.57-1.15,1.78-2.78,2.1-1,.11-1.94.47-5.4.84-1.57.16-1.68,1-2.36,4.3-.26,1.15.05,1.57,1.26,1.63,1.94,0,3.36-.05,3.57,1.52.42,2.41-2.15,2.26-5.14,2.57-.89,0-1.47.47-1.68,1.36-1.05,3.46-2.04,5.87-2.52,6.29-.63.63-1.21.79-1.89.52-.84-.26-1.21-.79-1.26-1.63Z" style="fill: #eae6e3;"/>
        <path d="M264.28,360.98c.52-2.1,1.1-4.14,2.52-9.07.37-1.42.63-2.36.11-2.73s-1.15.37-1.73,1.1l-2.15,3.15c-1.21,1.68-1.99,2.2-3.04,2.15-1.73-.1-2.1-1.99-2.46-4.04-.16-.84-.16-1.36-.79-1.36-.52,0-.79.58-1.05,1.31-.89,2.46-1.68,4.88-2.41,7.45-.42,1.89-1.31,2.73-2.46,2.47-1-.26-1.68-1.21-1.52-2.31.26-2.57,3.83-12.22,5.51-16,.63-1.57,1.63-2.46,2.67-2.46,2.26,0,2.94,3.36,3.41,5.93.1.63.26.94.79,1.05.52.05.79-.21,1.47-1.1,1.73-2.1,4.88-5.35,6.66-5.35,1.1,0,1.99.84,2.31,2.2.42,1.83-.37,4.67-.89,6.76-1.15,4.83-2.88,11.22-3.46,12.27-.52.89-1.47,1.26-2.41.89-.94-.26-1.36-1.21-1.05-2.31Z" style="fill: #eae6e3;"/>
        <path d="M284.58,358.72c.05-.68-.37-1.26-1.05-1.31l-3.36-.16c-.58,0-.94.26-1.36.89-1,1.57-2.26,3.51-2.67,3.88-.68.47-1.57.47-2.26,0-1-.63-1.05-1.78,0-3.41l4.41-7.34c1.83-3.09,6.35-9.07,8.23-10.23,1.68-1,3.36-.21,3.62,1.62.26,2.15-1.36,16.68-1.94,18.78-.26.94-1.1,1.47-2.04,1.31-1.78-.26-1.57-1.78-1.57-4.04ZM285.42,352.32c.37-2.62.37-3.04-.1-3.2-1.05-.47-3.36,2.88-2.83,3.83.21.47.63.52,1.52.52.73,0,1.31-.37,1.42-1.15Z" style="fill: #eae6e3;"/>
        <path d="M294.07,359.14c-1.36-5.19,4.46-18.46,9.49-20.03,1.47-.42,2.78,0,3.78,1.21,1,1.31,1.78,3.51.89,4.77-.79,1.21-2.05,1.15-3.09-.11-1.15-1.62-1.52-1.62-2.67-.05-2.36,3.41-3.93,7.08-4.61,11.01-.42,1.99.31,3.41,1.73,2.67,1.63-1,2.78-2.1,4.67-4.09-1.73-1.26-1.68-3.25.11-3.51,1.26-.1,2.62-.1,3.3.11,1.42.31,2.15,1.73,1.52,3.09-1.57,3.46-7.29,8.86-10.8,8.6-2.15-.21-3.83-1.62-4.3-3.67Z" style="fill: #eae6e3;"/>
        <path d="M315.57,342.25c.47-1,1.36-1.52,2.2-1.31,1.26.26,1.62,1.42,1.15,3.51-.79,3.62-2.15,6.92-3.36,10.44-1.42,4.09-1.99,6.71-3.99,6.03-2.26-.58-1.05-3.51-.21-5.93,1.83-4.67,3.78-11.64,4.2-12.74Z" style="fill: #eae6e3;"/>
        <path d="M320.19,356.68c.21-5.3,4.14-14.11,7.81-16.62,1.99-1.42,3.93-1.21,5.56.58,1.21,1.42,1.68,3.25,1.15,4.41-.63,1.26-2.31,1.42-3.15.26-.63-.79-.42-1.42-1.15-1.68-2.2-.47-6.5,10.07-6.24,13.48.05,1.68,1.36,2.31,2.78,1.31,1.05-.79,2.73-2.94,3.3-3.25,1-.47,2.1-.16,2.52.79,1.1,2.05-2.94,5.66-5.14,6.56-3.93,1.47-7.6-1.36-7.45-5.82Z" style="fill: #eae6e3;"/>
        <path d="M347.56,358.72c.05-.68-.37-1.26-1.05-1.31l-3.36-.16c-.58,0-.94.26-1.36.89-1,1.57-2.26,3.51-2.67,3.88-.68.47-1.57.47-2.26,0-1-.63-1.05-1.78,0-3.41l4.41-7.34c1.83-3.09,6.35-9.07,8.23-10.23,1.68-1,3.36-.21,3.62,1.62.26,2.15-1.36,16.68-1.94,18.78-.26.94-1.1,1.47-2.04,1.31-1.78-.26-1.57-1.78-1.57-4.04ZM348.4,352.32c.37-2.62.37-3.04-.1-3.2-1.05-.47-3.36,2.88-2.83,3.83.21.47.63.52,1.52.52.73,0,1.31-.37,1.42-1.15Z" style="fill: #eae6e3;"/>
        <path d="M355.79,359.3c-.16-1.15,1.57-5.87,3.41-11.07.79-2.2,1.57-4.41,2.31-6.66.58-1.89,1.36-2.52,2.62-2.2,1.31.31,1.68,1.47,1,3.46-1.26,3.78-2.52,7.5-3.3,9.75-.89,2.57-1.36,3.67-.63,4.04.37.21,1.21.1,3.04-.26,1.63-.31,2.99-.26,3.2,1.26.16.94-.37,1.83-1.26,2.1-2.41.79-7.24,1.78-8.18,1.73-1.26-.05-1.99-.79-2.2-2.15Z" style="fill: #eae6e3;"/>
        <path d="M398.64,360.98c.52-2.1,1.1-4.14,2.52-9.07.37-1.42.63-2.36.11-2.73s-1.15.37-1.73,1.1l-2.15,3.15c-1.21,1.68-1.99,2.2-3.04,2.15-1.73-.1-2.1-1.99-2.46-4.04-.16-.84-.16-1.36-.79-1.36-.52,0-.79.58-1.05,1.31-.89,2.46-1.68,4.88-2.41,7.45-.42,1.89-1.31,2.73-2.46,2.47-1-.26-1.68-1.21-1.52-2.31.26-2.57,3.83-12.22,5.51-16,.63-1.57,1.63-2.46,2.67-2.46,2.26,0,2.94,3.36,3.41,5.93.1.63.26.94.79,1.05.52.05.79-.21,1.47-1.1,1.73-2.1,4.88-5.35,6.66-5.35,1.1,0,1.99.84,2.31,2.2.42,1.83-.37,4.67-.89,6.76-1.15,4.83-2.88,11.22-3.46,12.27-.52.89-1.47,1.26-2.41.89-.94-.26-1.36-1.21-1.05-2.31Z" style="fill: #eae6e3;"/>
        <path d="M409.86,359.72c-2.88-4.46-.26-12.27,3.78-16.68.73-.79,1.57-1.42,2.41-1.83,1.36-.52,2.2-.31,3.09.73.42.52.79.79,1.26,1,1.62.89,2.1,3.83,1.68,6.14-.84,4.41-2.52,9.02-5.56,11.59-2.31,1.99-4.98,1.57-6.66-.94ZM418.1,346.08c-.37-1-1.15-.79-1.99.05-2.04,2.46-3.57,5.35-3.57,8.81,0,1.47.31,2.41,1.15,2.52,2.1.37,5.19-8.76,4.41-11.38Z" style="fill: #eae6e3;"/>
        <path d="M439.23,360.98c.52-2.1,1.1-4.14,2.52-9.07.37-1.42.63-2.36.11-2.73s-1.15.37-1.73,1.1l-2.15,3.15c-1.21,1.68-1.99,2.2-3.04,2.15-1.73-.1-2.1-1.99-2.46-4.04-.16-.84-.16-1.36-.79-1.36-.52,0-.79.58-1.05,1.31-.89,2.46-1.68,4.88-2.41,7.45-.42,1.89-1.31,2.73-2.46,2.47-1-.26-1.68-1.21-1.52-2.31.26-2.57,3.83-12.22,5.51-16,.63-1.57,1.63-2.46,2.67-2.46,2.26,0,2.94,3.36,3.41,5.93.1.63.26.94.79,1.05.52.05.79-.21,1.47-1.1,1.73-2.1,4.88-5.35,6.66-5.35,1.1,0,1.99.84,2.31,2.2.42,1.83-.37,4.67-.89,6.76-1.15,4.83-2.88,11.22-3.46,12.27-.52.89-1.47,1.26-2.41.89-.94-.26-1.36-1.21-1.05-2.31Z" style="fill: #eae6e3;"/>
        <path d="M448.2,358.46c0-1.78.37-3.51.73-5.24.47-2.15,2.41-8.81,2.94-10.07.94-2.46,1.99-3.3,4.04-3.2,3.51,0,7.34.05,7.5,2.2.37,2.41-3.36,2.2-6.24,1.73-1-.11-1.57.05-1.83,1.1-.21.89-.47,1.68-.68,2.52-.21.63.1,1.15.84,1.26,2.25.21,3.78,0,3.99,1.84.11,2.46-2.46,1.99-5.09,2.25-1.05.05-1.42.31-1.68,1.26-.16.63-.26,1.36-.37,2.04-.05.84.37,1.31,1.31,1.31,3.3,0,5.3-1.26,5.77,1.15.16.73-.26,1.52-1.05,1.94-.84.42-6.61,1-7.29,1-1.94-.16-2.88-1.15-2.88-3.09Z" style="fill: #eae6e3;"/>
        <path d="M463.3,359.14c0-.73,1.21-4.82,2.31-7.66,1.94-5.46,3.51-11.07,5.66-11.07.68-.05,1.31.26,1.78.84.73.89,1.73,4.51,2.2,6.87l.47,1.94c.26.79.42,1.15,1,1.15.68,0,.94-1.05,1.73-3.15,1.05-2.88,2.2-5.77,3.2-6.61.37-.26.73-.42,1.26-.42.79,0,1.83.73,1.78,1.94,0,.37-.16.79-.37,1.26-1.99,3.88-2.57,5.66-4.62,11.49-.42,1.21-.89,2.62-1.52,4.25-.31.79-.94,1.26-1.68,1.26s-1.47-.37-2.05-1.15c-.94-1.31-1.05-2.99-2.73-9.81-.26-.68-1.1-.73-1.42-.1-1.26,2.57-2.46,6.45-3.2,9.02-.42,1.47-1.26,2.2-2.36,1.94-.84-.21-1.47-1-1.47-1.99Z" style="fill: #eae6e3;"/>
        <path d="M492.62,358.83c1.31-3.46,3.99-12.59,3.99-14.32,0-.47-.21-.89-.79-.89-2.83,0-5.82.52-7.08.52-.63,0-1.15-.42-1.42-1.31-.37-1.05.58-2.26,1.94-2.46,3.67-.73,6.4-.84,16.62-.79,2.05,0,3.04.63,3.04,1.89,0,.89-.68,1.73-1.68,1.84-1.26.1-2.99.16-4.04.16-2.05,0-2.2.16-2.73,2.1-1.26,5.14-2.78,10.86-4.25,14.74-.63,1.52-1.84,2.2-2.94,1.63-1.1-.58-1.31-1.52-.68-3.09Z" style="fill: #eae6e3;"/>
      </g>
    </g>
  </g>
</svg>